<?xml version="1.0" standalone="no"?>
<!DOCTYPE svg PUBLIC "-//W3C//DTD SVG 20010904//EN"
 "http://www.w3.org/TR/2001/REC-SVG-20010904/DTD/svg10.dtd">
<svg version="1.0" xmlns="http://www.w3.org/2000/svg"
 width="512.000000pt" height="512.000000pt" viewBox="0 0 512.000000 512.000000"
 preserveAspectRatio="xMidYMid meet">

<g transform="translate(0.000000,512.000000) scale(0.100000,-0.100000)"
fill="#ffffff" stroke="none">
<path d="M800 3680 l0 -1280 960 0 960 0 0 -320 0 -320 -1280 0 -1280 0 0
-800 0 -800 480 0 480 0 0 320 0 320 1280 0 1280 0 0 1280 0 1280 -960 0 -960
0 0 320 0 320 640 0 640 0 0 480 0 480 -1120 0 -1120 0 0 -1280z"/>
<path d="M4000 4480 l0 -480 480 0 480 0 0 480 0 480 -480 0 -480 0 0 -480z"/>
</g>
</svg>
