<!-- <svg width="1080" height="1080" viewBox="0 0 1080 1080" fill="none" xmlns="http://www.w3.org/2000/svg">
<mask id="path-1-inside-1_723_2" fill="white">
<path d="M1035 539.5C1035 654.137 995.251 765.227 922.527 853.842C849.802 942.457 748.601 1003.11 636.167 1025.48C523.733 1047.84 407.023 1030.53 305.923 976.492C204.823 922.453 125.587 835.03 81.7177 729.12C37.8482 623.209 32.0588 505.364 65.3361 395.664C98.6133 285.964 168.898 191.195 264.215 127.507C359.532 63.8182 473.983 35.1496 588.067 46.386C702.152 57.6223 808.811 108.068 889.871 189.129L833.387 245.613C765.395 177.62 675.93 135.307 580.238 125.882C484.545 116.457 388.545 140.504 308.594 193.925C228.644 247.346 169.69 326.837 141.777 418.852C113.865 510.867 118.721 609.714 155.518 698.551C192.315 787.387 258.777 860.716 343.578 906.044C428.38 951.371 526.275 965.892 620.583 947.133C714.891 928.374 799.778 877.495 860.778 803.166C921.779 728.837 955.119 635.656 955.119 539.5H1035Z"/>
</mask>
<path d="M1035 539.5C1035 654.137 995.251 765.227 922.527 853.842C849.802 942.457 748.601 1003.11 636.167 1025.48C523.733 1047.84 407.023 1030.53 305.923 976.492C204.823 922.453 125.587 835.03 81.7177 729.12C37.8482 623.209 32.0588 505.364 65.3361 395.664C98.6133 285.964 168.898 191.195 264.215 127.507C359.532 63.8182 473.983 35.1496 588.067 46.386C702.152 57.6223 808.811 108.068 889.871 189.129L833.387 245.613C765.395 177.62 675.93 135.307 580.238 125.882C484.545 116.457 388.545 140.504 308.594 193.925C228.644 247.346 169.69 326.837 141.777 418.852C113.865 510.867 118.721 609.714 155.518 698.551C192.315 787.387 258.777 860.716 343.578 906.044C428.38 951.371 526.275 965.892 620.583 947.133C714.891 928.374 799.778 877.495 860.778 803.166C921.779 728.837 955.119 635.656 955.119 539.5H1035Z" stroke="black" stroke-width="80" mask="url(#path-1-inside-1_723_2)"/>
<path d="M235.898 191.982L542.364 995.856H547.137L698.938 560.504L1033.09 558.594" stroke="black" stroke-width="72"/>
</svg> -->

<svg width="200" height="200" viewBox="0 0 200 200" xmlns="http://www.w3.org/2000/svg">
  <!-- Define gradients -->
  <defs>
    <radialGradient id="snakeSkin" cx="0.5" cy="0.5" r="0.5">
      <stop offset="0%" stop-color="#6B8E23"/>
      <stop offset="100%" stop-color="#556B2F"/>
    </radialGradient>
    <linearGradient id="eyeGradient" x1="0%" y1="0%" x2="100%" y2="0%">
      <stop offset="0%" stop-color="#FF0000"/>
      <stop offset="100%" stop-color="#8B0000"/>
    </linearGradient>
  </defs>

  <!-- Snake head shape -->
  <path d="M50,100 C50,50 150,50 150,100 C150,150 50,150 50,100 Z" fill="url(#snakeSkin)" stroke="#2F4F4F" stroke-width="5"/>

  <!-- Eyes -->
  <ellipse cx="75" cy="85" rx="10" ry="15" fill="url(#eyeGradient)"/>
  <ellipse cx="125" cy="85" rx="10" ry="15" fill="url(#eyeGradient)"/>

  <!-- Eye pupils -->
  <circle cx="75" cy="85" r="5" fill="#000"/>
  <circle cx="125" cy="85" r="5" fill="#000"/>

  <!-- Nostrils -->
  <ellipse cx="90" cy="110" rx="3" ry="5" fill="#000"/>
  <ellipse cx="110" cy="110" rx="3" ry="5" fill="#000"/>

  <!-- Mouth -->
  <path d="M70,130 Q100,150 130,130" stroke="#000" stroke-width="4" fill="none"/>

  <!-- Tongue -->
  <path d="M100,150 L100,170 L95,175 M100,170 L105,175" stroke="#FF0000" stroke-width="2" fill="none"/>

  <!-- Scales -->
  <path d="M60,100 L70,110 M80,100 L90,110 M100,100 L110,110 M120,100 L130,110 M140,100 L150,110" stroke="#556B2F" stroke-width="2"/>
  <path d="M65,115 L75,125 M85,115 L95,125 M105,115 L115,125 M125,115 L135,125" stroke="#556B2F" stroke-width="2"/>
</svg>
